<svg width="887" height="294" viewBox="0 0 887 294" fill="none" xmlns="http://www.w3.org/2000/svg">
<rect x="59" width="800" height="240" rx="10" fill="#0EA601"/>
<path d="M54.9844 116.727C53.4844 116.727 52.3594 116.047 51.6094 114.688C51.3281 114.172 50.8359 113.281 50.1328 112.016C49.4297 110.75 48.7031 109.438 47.9531 108.078C47.2031 106.719 46.5234 105.43 45.9141 104.211C45.3047 102.992 45 102.172 45 101.75C45 101 45.1641 100.203 45.4922 99.3594C45.8203 98.5156 46.2422 97.6719 46.7578 96.8281C47.2734 95.9844 47.7656 95.1875 48.2344 94.4375C48.7031 93.6875 49.125 93.0312 49.5 92.4688L45 88.8828H58.8516L62.1562 102.523L56.7422 98.2344L52.875 106.039H65.7422V116.727H54.9844ZM71.2266 71.4453L65.3203 83.0469L56.3906 78.5469L60.6094 70.1797C61.2656 68.7734 62.3906 68.0703 63.9844 68.0703L79.5234 68C81.0234 68 82.1484 68.7031 82.8984 70.1094L86.6953 77.2109L90.7734 74.1172L88.6641 88.6719L73.3359 87.2656L77.6953 84.0312L71.2266 71.4453ZM79.8047 122L71.0859 110.328L79.8047 99.6406V106.883H91.2656L86.5547 98.2344L95.1328 93.1719C95.3203 93.5938 95.625 94.1797 96.0469 94.9297C96.4688 95.6797 96.9141 96.5 97.3828 97.3906C97.8516 98.2813 98.2266 99.1016 98.5078 99.8516C98.7891 100.602 98.9531 101.234 99 101.75C99 102.312 98.8594 102.875 98.5781 103.438L92.6016 115.25C92.2734 115.906 91.8047 116.398 91.1953 116.727C90.5859 117.055 89.9297 117.242 89.2266 117.289H79.8047V122ZM121.922 50H131.203L112.148 135.148C106.055 139.695 99.7734 143.141 93.3047 145.484C86.8359 147.828 79.7578 149 72.0703 149C64.4766 149 57.4219 147.828 50.9062 145.484C44.3906 143.141 38.1094 139.695 32.0625 135.148L9.63281 36.0078L9.21094 34.0391C9.07031 33.3828 9 32.7031 9 32C9 29.2812 9.67969 26.8203 11.0391 24.6172C12.3984 22.4141 14.2266 20.4219 16.5234 18.6406C18.8203 16.8594 21.375 15.3359 24.1875 14.0703C27 12.8047 29.8828 11.6563 32.8359 10.625C35.7891 9.59375 38.625 8.82031 41.3438 8.30469C44.0625 7.78906 46.4766 7.32031 48.5859 6.89844C56.3203 5.63281 64.125 5 72 5C74.3906 5 76.7578 5.04687 79.1016 5.14062C81.4453 5.23438 83.8359 5.42188 86.2734 5.70312C83.1797 6.64062 80.2031 7.78906 77.3438 9.14844C74.4844 10.5078 71.7188 12.1484 69.0469 14.0703C66.7969 14.1172 64.3125 14.2344 61.5938 14.4219C58.875 14.6094 56.0625 14.8906 53.1562 15.2656C50.25 15.6406 47.2969 16.1328 44.2969 16.7422C41.2969 17.3516 38.4141 18.1016 35.6484 18.9922C32.8828 19.8828 30.2813 20.9141 27.8438 22.0859C25.4062 23.2578 23.2969 24.6172 21.5156 26.1641C20.6719 26.9141 19.875 27.7812 19.125 28.7656C18.375 29.75 18 30.8281 18 32C18 32.7031 18.1406 33.3594 18.4219 33.9688C18.7031 34.5781 19.0781 35.1875 19.5469 35.7969C20.0156 36.4063 20.5078 36.9453 21.0234 37.4141C21.5391 37.8828 22.0781 38.3281 22.6406 38.75C24.6094 40.25 26.8594 41.5625 29.3906 42.6875C31.9219 43.8125 34.6406 44.7734 37.5469 45.5703C40.4531 46.3672 43.4062 47.0703 46.4062 47.6797C49.4063 48.2891 52.4297 48.7344 55.4766 49.0156C58.5234 49.2969 61.4297 49.5547 64.1953 49.7891C66.9609 50.0234 69.5625 50.0938 72 50H73.5469C74.0625 50 74.5781 49.9766 75.0938 49.9297L75.1641 50H119.602C116.133 51.6406 112.43 53.0234 108.492 54.1484C104.555 55.2734 100.5 56.2109 96.3281 56.9609C92.1563 57.7109 88.0078 58.2266 83.8828 58.5078C79.7578 58.7891 75.7969 58.9531 72 59C68.0625 59 63.8906 58.8359 59.4844 58.5078C55.0781 58.1797 50.6719 57.5938 46.2656 56.75C41.8594 55.9062 37.5469 54.8516 33.3281 53.5859C29.1094 52.3203 25.2656 50.7031 21.7969 48.7344L40.0781 129.875C44.7656 133.156 49.8516 135.617 55.3359 137.258C60.8203 138.898 66.4219 139.742 72.1406 139.789C77.8125 139.789 83.3672 138.969 88.8047 137.328C94.2422 135.687 99.3281 133.203 104.062 129.875L121.922 50ZM144 5V41H108V32H128.531C124.969 29.1875 121.055 27.0547 116.789 25.6016C112.523 24.1484 108.117 23.4219 103.57 23.4219C98.2266 23.4219 93.1172 24.4297 88.2422 26.4453C83.3672 28.4609 79.0078 31.3672 75.1641 35.1641L68.8359 28.8359C73.4766 24.1953 78.7734 20.6328 84.7266 18.1484C90.6797 15.6641 96.9609 14.4219 103.57 14.4219C109.289 14.4219 114.844 15.3828 120.234 17.3047C125.625 19.2266 130.547 22.0156 135 25.6719V5H144Z" fill="#F5F5F5"/>
<path d="M797.582 112.363C801.908 104.65 813.007 104.65 817.334 112.363L830.446 135.763L822.391 134.339C821.577 134.195 820.744 134.213 819.937 134.391C819.13 134.569 818.367 134.904 817.69 135.378C817.013 135.851 816.436 136.453 815.992 137.149C815.547 137.846 815.244 138.623 815.1 139.436C814.956 140.249 814.974 141.083 815.152 141.89C815.33 142.696 815.666 143.46 816.139 144.137C816.612 144.814 817.214 145.391 817.91 145.835C818.607 146.279 819.384 146.582 820.197 146.726L841.58 150.5C843.065 150.763 844.596 150.484 845.893 149.713C847.19 148.941 848.166 147.73 848.644 146.299L854.933 127.431C855.46 125.849 855.338 124.121 854.592 122.629C853.846 121.137 852.538 120.002 850.956 119.474C849.373 118.947 847.646 119.069 846.153 119.815C844.661 120.561 843.526 121.869 842.999 123.452L841.122 129.087L828.307 106.215C819.181 89.9285 795.735 89.9285 786.608 106.215L775.514 126.013C775.085 126.734 774.804 127.534 774.688 128.366C774.573 129.198 774.625 130.045 774.842 130.856C775.059 131.667 775.436 132.427 775.952 133.09C776.467 133.753 777.11 134.306 777.843 134.717C778.575 135.127 779.382 135.387 780.217 135.481C781.052 135.574 781.897 135.5 782.702 135.262C783.507 135.023 784.257 134.626 784.906 134.094C785.555 133.561 786.091 132.904 786.483 132.161L797.582 112.363V112.363ZM858.198 159.566C857.359 158.158 856.003 157.132 854.42 156.709C852.836 156.285 851.15 156.497 849.72 157.298C848.29 158.1 847.229 159.428 846.764 161C846.299 162.572 846.466 164.264 847.23 165.714L863.848 195.378C868.074 202.925 862.62 212.233 853.972 212.233H822.139L826.124 207.453C827.176 206.171 827.679 204.524 827.523 202.872C827.366 201.22 826.564 199.697 825.289 198.634C824.015 197.572 822.372 197.056 820.719 197.199C819.066 197.342 817.537 198.133 816.464 199.398L803.886 214.492C802.944 215.622 802.429 217.046 802.429 218.517C802.429 219.988 802.944 221.412 803.886 222.542L816.464 237.636C817.545 238.872 819.066 239.636 820.703 239.765C822.34 239.894 823.962 239.377 825.223 238.326C826.485 237.275 827.285 235.773 827.453 234.139C827.621 232.506 827.144 230.872 826.124 229.586L822.149 224.811H853.972C872.235 224.811 883.747 205.164 874.821 189.23L858.198 159.566V159.566ZM786.065 212.233H760.934C752.28 212.233 746.831 202.925 751.058 195.378L768.908 163.531L772.979 171.168C773.773 172.623 775.109 173.706 776.696 174.181C778.284 174.656 779.995 174.485 781.458 173.706C782.921 172.926 784.016 171.6 784.507 170.017C784.997 168.434 784.843 166.721 784.078 165.251L774.015 146.384C773.396 145.223 772.428 144.285 771.247 143.702C770.066 143.12 768.733 142.923 767.434 143.139L744.794 146.912C743.972 147.04 743.183 147.329 742.474 147.763C741.765 148.197 741.149 148.768 740.661 149.442C740.174 150.116 739.825 150.88 739.635 151.689C739.445 152.499 739.417 153.338 739.553 154.159C739.69 154.979 739.988 155.764 740.43 156.469C740.871 157.173 741.449 157.783 742.128 158.263C742.807 158.743 743.575 159.084 744.386 159.265C745.198 159.446 746.038 159.465 746.856 159.319L757.875 157.483L740.084 189.23C731.159 205.159 742.67 224.811 760.934 224.811H786.065C787.733 224.811 789.333 224.149 790.512 222.969C791.691 221.79 792.354 220.19 792.354 218.522C792.354 216.854 791.691 215.255 790.512 214.075C789.333 212.896 787.733 212.233 786.065 212.233V212.233Z" fill="#F5F5F5"/>
</svg>
